<svg width="24" height="21" viewBox="0 0 24 21" fill="none" xmlns="http://www.w3.org/2000/svg">
<path d="M21.9841 9.16796H5.17651C5.17358 9.16796 5.17065 9.1619 5.17358 9.1619L11.5134 2.86503C12.0261 2.35643 12.0437 1.5118 11.5486 0.982018C11.0564 0.452233 10.239 0.434069 9.72632 0.94569L1.09546 9.5161C0.843506 9.76737 0.699951 10.1155 0.699951 10.4758C0.699951 10.839 0.843506 11.1842 1.09546 11.4354L9.77319 20.0543C10.0222 20.3025 10.3445 20.4266 10.6667 20.4266C11.0066 20.4266 11.3435 20.2904 11.5955 20.018C12.0876 19.4882 12.073 18.6435 11.5603 18.1349L5.22046 11.8381C5.21753 11.835 5.22046 11.832 5.22339 11.832H22.0134C22.699 11.832 23.2585 11.278 23.2996 10.5817C23.3435 9.80975 22.7312 9.16796 21.9841 9.16796Z" fill="white" stroke="white"/>
</svg>
