<svg width="17" height="17" viewBox="0 0 17 17" fill="none" xmlns="http://www.w3.org/2000/svg">
<path fill-rule="evenodd" clip-rule="evenodd" d="M8.66575 1.65188C8.61868 1.61429 8.56023 1.59381 8.5 1.59381C8.43977 1.59381 8.38132 1.61429 8.33425 1.65188L2.75613 6.11438C2.72488 6.13933 2.69966 6.17102 2.68237 6.20707C2.66508 6.24313 2.65614 6.28264 2.65625 6.32263V13.7803C2.65625 13.9269 2.77525 14.0459 2.92188 14.0459H5.84375V8.46782C5.84375 8.25647 5.92771 8.05378 6.07715 7.90434C6.22659 7.75489 6.42928 7.67094 6.64062 7.67094H10.3594C10.5707 7.67094 10.7734 7.75489 10.9228 7.90434C11.0723 8.05378 11.1562 8.25647 11.1562 8.46782V14.0459H14.0781C14.1486 14.0459 14.2161 14.018 14.266 13.9682C14.3158 13.9183 14.3438 13.8508 14.3438 13.7803V6.32157C14.3436 6.28176 14.3347 6.24246 14.3174 6.20659C14.3001 6.17074 14.275 6.13922 14.2439 6.11438L8.66575 1.65188ZM7.33763 0.407688C7.66736 0.143784 8.07712 0 8.49947 0C8.92181 0 9.33158 0.143784 9.66131 0.407688L15.2394 4.87019C15.6804 5.22293 15.9375 5.75738 15.9375 6.32263V13.7803C15.9375 14.2734 15.7416 14.7463 15.3929 15.0951C15.0442 15.4438 14.5712 15.6397 14.0781 15.6397H10.3594C10.148 15.6397 9.94534 15.5558 9.7959 15.4063C9.64646 15.2569 9.5625 15.0541 9.5625 14.8428V9.26469H7.4375V14.8428C7.4375 15.0541 7.35354 15.2569 7.2041 15.4063C7.05466 15.5558 6.85197 15.6397 6.64062 15.6397H2.92188C2.42874 15.6397 1.9558 15.4438 1.6071 15.0951C1.25839 14.7463 1.0625 14.2734 1.0625 13.7803V6.32157C1.0625 5.75738 1.31962 5.22293 1.76056 4.87019L7.33869 0.407688H7.33763Z" fill="white"/>
</svg>
